<svg xmlns="http://www.w3.org/2000/svg" viewBox="0 0 762 762" fill="none" shape-rendering="auto"><metadata xmlns:rdf="http://www.w3.org/1999/02/22-rdf-syntax-ns#" xmlns:xsi="http://www.w3.org/2001/XMLSchema-instance" xmlns:dc="http://purl.org/dc/elements/1.1/" xmlns:dcterms="http://purl.org/dc/terms/"><rdf:RDF><rdf:Description><dc:title>Adventurer</dc:title><dc:creator>Lisa Wischofsky</dc:creator><dc:source xsi:type="dcterms:URI">https://www.figma.com/community/file/1184595184137881796</dc:source><dcterms:license xsi:type="dcterms:URI">https://creativecommons.org/licenses/by/4.0/</dcterms:license><dc:rights>Remix of „Adventurer” (https://www.figma.com/community/file/1184595184137881796) by „Lisa Wischofsky”, licensed under „CC BY 4.0” (https://creativecommons.org/licenses/by/4.0/)</dc:rights></rdf:Description></rdf:RDF></metadata><mask id="viewboxMask"><rect width="762" height="762" rx="0" ry="0" x="0" y="0" fill="#fff" /></mask><g mask="url(#viewboxMask)"><path d="M396 164.8a224.8 224.8 0 0 1 104.8 42.4c6.2 4.9 12.5 9.4 18 15a225.4 225.4 0 0 1 71.8 149 58.5 58.5 0 0 1 50.9 42.2 71 71 0 0 1-27.6 76.5c-11 7.7-24.5 12-38 11.7-5 0-10-1.6-15-1.8-1.9 2.2-3.3 4.9-4.8 7.3A223.3 223.3 0 0 1 389 609.8c-11 .7-21.9 2-33 .7a223.7 223.7 0 0 1-178.8-342.3A223.4 223.4 0 0 1 352 163.5c14.6-1.4 29.4-.3 44 1.3Z" fill="#000"/><path fill-rule="evenodd" clip-rule="evenodd" d="M498.8 213.2A216 216 0 0 0 363 169c-13-.2-26.2 1.6-39 4a218 218 0 0 0-113.6 365.5 218.5 218.5 0 0 0 260.4 40.2c35-18.8 64.2-47.3 84.4-81.5l-3-1.6c-2.8-1.4-5.7-3-8-5-2.2-2-.3-5.8 2.7-4.7 1.5.7 3 1.6 4.4 2.4a55 55 0 0 0 59.6-3.6 64.5 64.5 0 0 0 25-69.8 53.1 53.1 0 0 0-24-31 52.6 52.6 0 0 0-47-2.8c-1.6.8-3.4 1.5-5 1.3-2.5-.2-2.8-4.2-.6-5.2 8-4 16.5-5.6 25.4-6.4a217 217 0 0 0-72-146.4c-4.4-4-8.7-8.1-13.9-11.3Zm107.6 196.2c2-1.2 1.3-5.1-1.4-5-2 0-4.2.8-6.2 1.6l-1.4.4a95.1 95.1 0 0 0-25.5 12.4c-2.2 2-2.2 4.4.1 6.2a92 92 0 0 0 5.2 2.8 36 36 0 0 1 13 9.2c-.2 1.9-2 3.4-3.4 4.5l-.2.2c-3.9 3-8.8 5-13.6 7-2.5 1-4.9 2-7.1 3.1-1.7.8-2.6 2.2-1.6 3.9 1 2 3.2 1.1 5 .5l.6-.2 5.4-2.3c5.4-2.3 11-4.5 15.4-8 2.7-2.1 5.1-5.1 5.4-8.7-.5-3.4-2.7-5.7-5.3-7.8a83 83 0 0 0-11.6-7.2l-1.1-.6c5.4-3 10.8-5.6 16.6-7.7l5-1.7a52 52 0 0 0 6.7-2.6Z" fill="#ecad80"/><g transform="translate(-161 -83)"><path d="M540.5 447.7a103 103 0 0 1 57 7.8 46 46 0 0 1 21.2 19c3.9 7.3 3.9 16.7-.2 24-4.2 8-12 14-20 18.2a95.3 95.3 0 0 1-44.5 9.6c-12 0-24-1.8-35.2-6a56 56 0 0 1-23.7-16.3 26.6 26.6 0 0 1-6-22 35.2 35.2 0 0 1 14.5-20.4 82 82 0 0 1 36.9-13.9Z" fill="#000"/><path d="M547 452.7c8.4-.3 17.2-.6 25.5 1a74 74 0 0 1 30.3 11.5c5.5 4 10.4 9.1 12.3 15.8 2 6.8-.2 14.1-4.7 19.4a54.2 54.2 0 0 1-24.6 15.5c-9.9 3.2-20.4 5-30.8 4.8a92.9 92.9 0 0 1-30.2-4.5A54 54 0 0 1 500 501c-4.3-5-7-12.4-4.9-19 1.5-6.5 6.7-12 12-16 11.4-8.2 26-12 39.9-13.3Z" fill="#fff"/><path d="M373.5 460.8c16.3-2.3 34.2-1 49 6.6 7.8 4 15.5 10.4 18 19 2.4 7.2-.1 14.8-4.6 20.5a50.5 50.5 0 0 1-24.6 15.4 89.7 89.7 0 0 1-45.3 1.8c-10-2.3-20-6.5-27.2-14-4.7-4.7-8-11.2-7.4-18 .6-7.3 5-13.7 10.5-18.2a65 65 0 0 1 31.6-13.1Z" fill="#000"/><path d="M371.5 467c15.6-3 33-1.9 47.4 5 6.4 3 13.5 8.2 15.8 15.2 2 5.6.3 11.7-3.3 16.2a43.5 43.5 0 0 1-18.6 12.4c-12.4 4.4-26 5.9-39 3.9-9.3-1.3-19-4.3-26.7-9.8-5.2-4-9.6-9-10-15.9-.1-6.8 4.2-12.5 9.4-16.6a60.4 60.4 0 0 1 25-10.5Z" fill="#fff"/><path d="M592.2 469.2c2.1-1.6 4.7-.3 6 1.7 2.4 4 2.4 9.6 2.8 14.1.2 4.4.5 9.6-1.2 13.8-2 4-7.5 1.3-8.8-1.9a50.3 50.3 0 0 1-1.6-20.3c.4-2.4.6-6 2.8-7.4ZM416.9 476c2.1.6 2.8 3.8 3.3 5.7.8 5 1.3 10.2 1 15.3-.3 2.6-.7 5.7-3 7.2-2.2 1.3-4.4 0-5.4-2-2.1-3.8-2.2-9-2.3-13.2 0-4.4-.1-8.7 2.2-12.6 1.4-.3 2.7-1 4.2-.3Z" fill="#000"/></g><g transform="translate(-161 -83)"><path d="M614 407a133.9 133.9 0 0 0-92-35 175 175 0 0 0-26.4 3c-1.5 3.3-2.5 6.6-3.5 10l-1.2 3.7v-1.4a170 170 0 0 0-1.4-11.4l-3.2-1.5-.8 1.1c-.6.8-1.3 1.6-1.3 2.4 0 3.8.3 7.5.7 11.3.3 2.8.6 5.5.7 8.3l.2 2.2c.1 2.4.3 5 1.6 6.9 2.9.7 6-.4 9-1.4l3.1-1c19-5.5 39.2-6.8 58.7-4.4 20 2.3 40 8.3 57.4 18.6 2 1 4 1.8 6.2 2.5l1.7-3.4c-2.7-4-6-7.3-9.5-10.5ZM422.3 399.6c0-4.2.2-8.5 0-12.7-.3-2.5-1.9-2.5-3.7-2.6h-1c-1 3.6-1 7.5-1.2 11.3l-.3 5-4.5-11.4-.4-.8c-.4-1.1-.9-2.3-2.2-2.3-2.5 0-5 .4-7.5.9l-3.5.6a128 128 0 0 0-52 20.3 53 53 0 0 0-16.7 18.5c-1.5 3.2-2.9 6.5-1.6 10h.4c1 .4 2.6.9 3.4.1a92 92 0 0 0 2.7-2.1c2-1.7 4.1-3.4 6.5-4.6a152.8 152.8 0 0 1 68.3-15.3c1.9 0 3.7.2 5.5.5 1.9.3 3.7.5 5.6.5 1.8-1.2 1.9-3.6 2-5.7V408c0-2.8 0-5.6.2-8.4Z" fill="#000"/></g><g transform="translate(-161 -83)"><path d="M515 571.8c10-.8 20.3-.7 29.5 3.7 4.7 2.3 8.8 6 9.7 11.5.9 5.2-1.1 9.9-4 14a60.7 60.7 0 0 1-20.7 16.6c-16.5 8.7-34 12-52.5 13.7a90 90 0 0 1-59.1-12.1 42.2 42.2 0 0 1-16-16c-2.6-5.3-2.3-12 1.9-16.4 4.8-5.2 12.4-7.2 19.2-7.9a92.7 92.7 0 0 1 44.8 8.5 117.7 117.7 0 0 1 47.2-15.6Z" fill="#000"/><path d="M540.4 580a85 85 0 0 1-12.1 8.3c-2.7 1.5-3.8 4.1-5.5 6.6a30.2 30.2 0 0 1-5.7 6.7c-3-1-6-2.8-9.1-3.5-3 .5-6 1.9-8.9 2.7-10 2.8-20.7 5-31.1 4.9-3 0-5.8.2-8.7.8.3 2.5-.5 4.7 2.9 5 14.6.9 29.7-2 43.6-6.6 4.7-2.1 7.7 3 12.8 1.7 4.4-1.3 7.4-6.6 10-10 1.7-2.9 4.4-4.2 7-6 3.8-2.1 7-4.8 10.4-7.4 1.5 2.6 3.2 4.7 2.5 7.8-1.4 6.4-6.6 11-11.5 15a107 107 0 0 1-44.3 17.6c-14.4 2-28 4.2-42.6 1.5A78.8 78.8 0 0 1 414 609c-3.8-3.4-8.4-8.5-7.8-14 .3-3.8 3.9-6.3 7-7.7a51 51 0 0 1 25.2-2.2 89.4 89.4 0 0 1 25.4 7.2c1.6.7 3.4 1.7 5 1.5 3.2-1.2 5.8-3.5 8.8-5A102 102 0 0 1 506 579c11.4-2 23.3-2.9 34.5 1Z" fill="#fff"/></g><g transform="translate(-161 -83)"></g><g transform="translate(-161 -83)"></g><g transform="translate(-161 -83)"><path d="M530 122.8a69.9 69.9 0 0 1 42.2 26.5c8.8-5.3 18-9.6 27.8-12.2 12-3.5 24.7-4.2 37-2.8 15.4 2 30.6 9 40.1 21.6a47 47 0 0 1 9.3 31.1c6.5.8 12.9 1.4 19.1 3.3a63 63 0 0 1 34.4 22.9 41.8 41.8 0 0 1 7.6 30.9 70.5 70.5 0 0 1 61 9.4c8.3 6 15.1 13.7 19 23.3 4 10 4 21.4-.2 31.2a45.9 45.9 0 0 1-13 17.1 58 58 0 0 1 42.9 24.7c1.1 1.8 1.6 4-.1 5.6-1.7.4-3.5-.9-5-1.4-3.5-1.7-7-1.4-10.7-1.4a54 54 0 0 1 3.5 70.3 44.6 44.6 0 0 1-29.7 16.7c6.8 17.8 1.5 41-14 52.7-1.7 1.3-4 2.7-5.6.2a56.6 56.6 0 0 0-26.3-27.3 30 30 0 0 1-6.4 11.7 37.1 37.1 0 0 1-55.1-3.7c-5-7-6-15.7-3-23.8-6 3.8-11.7 7.6-16.1 13.3-2 2.4-3.6 2.2-6 .6a59 59 0 0 1-24.2-46.3 78.2 78.2 0 0 1 14.4-48.5c-15.4 2-30.2-8-35.3-22.4a48 48 0 0 1-24.6 7.3 52.3 52.3 0 0 1-30.2-9.2 85.3 85.3 0 0 1-28.4-33.1c-2.5 3.2-5 6.4-8 9.4a74.8 74.8 0 0 1-55.4 22.4c-13.3-.4-26-4.7-37-12.2a59.8 59.8 0 0 0 13.4 23c1.2 1.1 2 2.3 1.4 4-1.5 2.2-4.3 3.6-6.6 4.7a76.4 76.4 0 0 1-49.2 5.9 81 81 0 0 1-39.3-20.6c-8.3 12.7-23 18-37.7 17.4a279 279 0 0 0-18.4 49c-1.1 3.8-1.7 7.8-3.1 11.4-.8 1.8-2.7 2.3-4.5 1.6a34.7 34.7 0 0 1-19.7-20.4 51.8 51.8 0 0 1-2-33.4c-11.1.6-21.4-3.6-29.1-11.5a60.7 60.7 0 0 1-15.4-40.8 78 78 0 0 1 13.9-46.3c1.5-1.8 2.6-4 5.4-3.3 1.9 1.2 1.4 3.7 2 5.6.5 4.4 3 8.3 5.2 12 5.4-15.5 18.6-29.3 35.8-30.3-.6-3.2-1.3-6.4-1.2-9.7a55 55 0 0 1 19.3-38.8 41.1 41.1 0 0 1 26-10.4c1.2-14.3 9-27.7 19-37.7a65 65 0 0 1 38.8-18.9c10-1 20.3 1.7 28.5 7.7 23.8-24 60.4-35.5 93.6-28.2ZM718.5 576.5c1.4-.9 2.6-.3 4 0a81 81 0 0 0 16.5 2.3l7.1-.2c2 .9 2 2.5 2 4.4a33.2 33.2 0 0 1-5.3 17.7 27 27 0 0 1-16.8 11.4 25.7 25.7 0 0 1-21.7-5.4c-1.7-1.5-3.2-3.8-1.5-5.9 3.7-5 7.5-10 10.7-15.3 1.8-2.9 2.9-6.3 5-9Z" fill="#000"/><path d="M518.8 126.7a69.8 69.8 0 0 1 44.1 20.4c2.5 2.5 4.3 5.7 6.7 8.2 1.8 1.3 3.4.4 5-.6a90.7 90.7 0 0 1 67.5-13.6 53.2 53.2 0 0 1 28.6 16.2 41 41 0 0 1 10 29.7c0 1.5-.4 3.5.3 4.9 1.1 1.2 2.4 1 4 1.2a69 69 0 0 1 38.7 12.2c9 6.4 16.2 15.6 18 26.7.4 5.5.8 11-1.6 16.2-.9 2.5 1.2 4.3 3.6 3.4a65 65 0 0 1 58.8 4.8c8.5 5.4 15.8 13 19.5 22.5 3.4 8 3.7 17.5.5 25.6a39 39 0 0 1-13 16.9c-2.5 1.9-5.4 3.4-7.7 5.6-1.4 1.6 0 4.5 2.2 4.3 5.4 0 10.6-.7 16 .4 10.8 2 20.2 7.9 27.8 15.7-3.7 0-8.8-.6-11.8 1.6-1.9 1.2-2.5 3.3-1.2 5.1 2.5 3.2 5.6 5.8 7.7 9.4 7.1 10.8 9 23.9 6.8 36.5a44 44 0 0 1-17.8 27.5c-6.4 4.2-13.7 7-21.5 6.1-2.2-.4-2.8 2.6-1.9 4.2A42 42 0 0 1 799 487a70.9 70.9 0 0 0-18.2-21.6c-3.3-2.6-7.2-4-10.7-6.3-1.5-3.8-.4-8.5-4.8-10.4l-2.8 1.3c.1 4 1.8 7.3 1.5 11.1-.3 6.4-4.2 12-9.4 15.5a32 32 0 0 1-39.4-3.6 19.9 19.9 0 0 1-5.8-18.7c.8-3.3 2.7-5.7 4.4-8.5 1-1.2 0-3-.4-4.4-2 .1-4 .2-5.8 1-8.5 3.3-16 9.1-22 15.8a51.6 51.6 0 0 1-19.8-30.3 71.7 71.7 0 0 1 16-61.2c1.3-1.8 2.6-3.3 1.3-5.5-1.5-2-4-.7-5.9 0-9.9 4.6-22.3-.1-29-8.2-3.5-3.9-5-8.5-6.8-13.4-2.2-.2-3.8-.4-5.8 1a42 42 0 0 1-23.5 7 48.2 48.2 0 0 1-29.2-10.4 84.4 84.4 0 0 1-25.7-34l-2.3-1.6c-1.4 1.1-2.7 2.1-3.6 3.7a68.2 68.2 0 0 1-58.2 31.7 59 59 0 0 1-38.6-13.4c-1.2-.9-2.6-2.1-4.3-1.4-2.2 1-2.5 3.8-2 6 1.9 10.2 7.2 20 13.7 28a72.3 72.3 0 0 1-66.7-.3 71 71 0 0 1-34-37 60.3 60.3 0 0 1-2.7-35.8c.4-1.9 1-3.6 0-5.4-1.9-1.1-3.8-1-4.8 1.1-7 22.7.5 47.2 15.9 64.7a32.5 32.5 0 0 1-23.5 15.2c-7.6.8-15.1.5-22.2-2.4-4.5-1.6-8.2-4.3-12.2-6.7-3-1.3-5.5 2.7-2.8 4.7 6 5.1 14 8.3 21.8 10-8.9 18.1-16 37-20.8 56.6-8-3.8-12.4-11.2-15.3-19.3a42.3 42.3 0 0 1-.3-27.3c.7-2.8 2.6-5-.3-7.2-4-.5-7.8 1.3-12 .3A33.5 33.5 0 0 1 258 351a61.6 61.6 0 0 1-7.9-40c1-10.6 4.8-21 10.3-30 1.9 5.3 4.6 11 8.9 14.8 1.4 1.3 3.2 1.3 4.9.4 1.1-2.4 1-5.4 2-8a39.3 39.3 0 0 1 23.3-22.6c4-1.3 7.5-.4 11.5-.5 1.2-.4 1.7-1.9 2.4-2.8-4.9-11.3-2.4-23.2 3.2-33.7a45.2 45.2 0 0 1 26-21.9c3.7-1.2 7.4-.5 11.3-1 2-.7 1.6-2.9 2-4.7 1.2-13.2 7.6-25 16.9-34.2a59.1 59.1 0 0 1 36.2-17.9 35 35 0 0 1 23.4 6.2c-9 11.3-16 23.4-18 38-.2 2.2 1.6 3.5 3.7 3.2 2.3-1.2 2-3.6 2.7-5.8a69.1 69.1 0 0 1 14.8-30 98.3 98.3 0 0 1 83.2-33.8ZM721.5 582c6.8 1.2 13.6 2.2 20.6 2.4-.2 9-5.4 17.6-13.9 21a20.7 20.7 0 0 1-19.8-2.5c4.7-6.9 9.4-13.5 13.1-21Z" fill="#6a4e35"/></g><g transform="translate(-161 -83)"></g></g></svg>